<mxfile host="app.diagrams.net" modified="2022-01-17T00:01:01.896Z" agent="5.0 (Windows NT 10.0; Win64; x64) AppleWebKit/537.36 (KHTML, like Gecko) Chrome/97.0.4692.71 Safari/537.36" etag="8BJbQGSKQOv-QAJ5VfWG" version="16.0.0" type="github">
  <diagram id="i1y2KuyKNqHCuniKc-l9" name="Page-1">
    <mxGraphModel dx="294" dy="133" grid="1" gridSize="10" guides="1" tooltips="1" connect="1" arrows="1" fold="1" page="1" pageScale="1" pageWidth="850" pageHeight="1100" math="0" shadow="0">
      <root>
        <mxCell id="0" />
        <mxCell id="1" parent="0" />
        <mxCell id="j04tyDxhk86PTV6EVtOH-13" value="" style="edgeStyle=orthogonalEdgeStyle;rounded=0;orthogonalLoop=1;jettySize=auto;html=1;" edge="1" parent="1" source="j04tyDxhk86PTV6EVtOH-2" target="j04tyDxhk86PTV6EVtOH-5">
          <mxGeometry relative="1" as="geometry" />
        </mxCell>
        <mxCell id="j04tyDxhk86PTV6EVtOH-14" style="edgeStyle=orthogonalEdgeStyle;rounded=0;orthogonalLoop=1;jettySize=auto;html=1;exitX=1.008;exitY=0.66;exitDx=0;exitDy=0;exitPerimeter=0;strokeColor=#007FFF;" edge="1" parent="1" source="j04tyDxhk86PTV6EVtOH-2" target="j04tyDxhk86PTV6EVtOH-8">
          <mxGeometry relative="1" as="geometry" />
        </mxCell>
        <mxCell id="j04tyDxhk86PTV6EVtOH-15" value="&lt;font style=&quot;font-size: 14px&quot;&gt;SPI&lt;/font&gt;" style="edgeLabel;html=1;align=center;verticalAlign=middle;resizable=0;points=[];" vertex="1" connectable="0" parent="j04tyDxhk86PTV6EVtOH-14">
          <mxGeometry x="-0.4194" y="-1" relative="1" as="geometry">
            <mxPoint x="16" as="offset" />
          </mxGeometry>
        </mxCell>
        <mxCell id="j04tyDxhk86PTV6EVtOH-2" value="&lt;font style=&quot;font-size: 14px&quot;&gt;CM4&lt;/font&gt;" style="rounded=0;whiteSpace=wrap;html=1;" vertex="1" parent="1">
          <mxGeometry x="265" y="290" width="125" height="240" as="geometry" />
        </mxCell>
        <mxCell id="j04tyDxhk86PTV6EVtOH-21" style="edgeStyle=orthogonalEdgeStyle;rounded=0;orthogonalLoop=1;jettySize=auto;html=1;exitX=0.14;exitY=0.921;exitDx=0;exitDy=0;entryX=1;entryY=0.123;entryDx=0;entryDy=0;entryPerimeter=0;fontSize=9;exitPerimeter=0;strokeColor=#FF0000;" edge="1" parent="1" source="j04tyDxhk86PTV6EVtOH-3" target="j04tyDxhk86PTV6EVtOH-2">
          <mxGeometry relative="1" as="geometry">
            <Array as="points">
              <mxPoint x="828" y="320" />
              <mxPoint x="824" y="320" />
            </Array>
          </mxGeometry>
        </mxCell>
        <mxCell id="j04tyDxhk86PTV6EVtOH-22" value="&lt;font style=&quot;font-size: 14px&quot;&gt;5 V&lt;/font&gt;" style="edgeLabel;html=1;align=center;verticalAlign=middle;resizable=0;points=[];fontSize=9;" vertex="1" connectable="0" parent="j04tyDxhk86PTV6EVtOH-21">
          <mxGeometry x="0.0067" relative="1" as="geometry">
            <mxPoint as="offset" />
          </mxGeometry>
        </mxCell>
        <mxCell id="j04tyDxhk86PTV6EVtOH-3" value="&lt;br&gt;" style="rounded=0;whiteSpace=wrap;html=1;direction=south;" vertex="1" parent="1">
          <mxGeometry x="825" y="290" width="35" height="300" as="geometry" />
        </mxCell>
        <mxCell id="j04tyDxhk86PTV6EVtOH-41" style="edgeStyle=orthogonalEdgeStyle;rounded=0;orthogonalLoop=1;jettySize=auto;html=1;entryX=0.771;entryY=0.337;entryDx=0;entryDy=0;entryPerimeter=0;fontSize=9;" edge="1" parent="1" source="j04tyDxhk86PTV6EVtOH-5" target="j04tyDxhk86PTV6EVtOH-36">
          <mxGeometry relative="1" as="geometry">
            <Array as="points">
              <mxPoint x="930" y="180" />
              <mxPoint x="930" y="610" />
              <mxPoint x="490" y="610" />
              <mxPoint x="490" y="573" />
            </Array>
          </mxGeometry>
        </mxCell>
        <mxCell id="j04tyDxhk86PTV6EVtOH-5" value="Power Led" style="rhombus;whiteSpace=wrap;html=1;" vertex="1" parent="1">
          <mxGeometry x="320" y="140" width="70" height="80" as="geometry" />
        </mxCell>
        <mxCell id="j04tyDxhk86PTV6EVtOH-11" value="" style="edgeStyle=orthogonalEdgeStyle;rounded=0;orthogonalLoop=1;jettySize=auto;html=1;" edge="1" parent="1" source="j04tyDxhk86PTV6EVtOH-6" target="j04tyDxhk86PTV6EVtOH-2">
          <mxGeometry relative="1" as="geometry" />
        </mxCell>
        <mxCell id="j04tyDxhk86PTV6EVtOH-40" style="edgeStyle=orthogonalEdgeStyle;rounded=0;orthogonalLoop=1;jettySize=auto;html=1;entryX=1;entryY=0.5;entryDx=0;entryDy=0;fontSize=9;exitX=0.623;exitY=0.932;exitDx=0;exitDy=0;exitPerimeter=0;" edge="1" parent="1" source="j04tyDxhk86PTV6EVtOH-6" target="j04tyDxhk86PTV6EVtOH-36">
          <mxGeometry relative="1" as="geometry">
            <Array as="points">
              <mxPoint x="100" y="305" />
              <mxPoint x="100" y="600" />
              <mxPoint x="490" y="600" />
            </Array>
          </mxGeometry>
        </mxCell>
        <mxCell id="j04tyDxhk86PTV6EVtOH-6" value="USB-b" style="shape=or;whiteSpace=wrap;html=1;" vertex="1" parent="1">
          <mxGeometry x="60" y="230" width="60" height="80" as="geometry" />
        </mxCell>
        <mxCell id="j04tyDxhk86PTV6EVtOH-17" value="" style="edgeStyle=orthogonalEdgeStyle;rounded=0;orthogonalLoop=1;jettySize=auto;html=1;strokeColor=#007FFF;" edge="1" parent="1" source="j04tyDxhk86PTV6EVtOH-8" target="j04tyDxhk86PTV6EVtOH-9">
          <mxGeometry relative="1" as="geometry" />
        </mxCell>
        <mxCell id="j04tyDxhk86PTV6EVtOH-8" value="MCP2510&amp;nbsp;&lt;br&gt;SPI to CAN" style="whiteSpace=wrap;html=1;aspect=fixed;" vertex="1" parent="1">
          <mxGeometry x="530" y="410" width="80" height="80" as="geometry" />
        </mxCell>
        <mxCell id="j04tyDxhk86PTV6EVtOH-18" value="" style="edgeStyle=orthogonalEdgeStyle;rounded=0;orthogonalLoop=1;jettySize=auto;html=1;fontSize=14;entryX=0.532;entryY=1.061;entryDx=0;entryDy=0;entryPerimeter=0;strokeColor=#007FFF;" edge="1" parent="1" source="j04tyDxhk86PTV6EVtOH-9" target="j04tyDxhk86PTV6EVtOH-3">
          <mxGeometry relative="1" as="geometry">
            <mxPoint x="820" y="450" as="targetPoint" />
          </mxGeometry>
        </mxCell>
        <mxCell id="j04tyDxhk86PTV6EVtOH-9" value="&lt;div&gt;CAN XCVR&lt;/div&gt;&lt;div&gt;ADA6560&lt;/div&gt;" style="whiteSpace=wrap;html=1;aspect=fixed;" vertex="1" parent="1">
          <mxGeometry x="660" y="410" width="80" height="80" as="geometry" />
        </mxCell>
        <mxCell id="j04tyDxhk86PTV6EVtOH-12" value="&lt;font style=&quot;font-size: 14px&quot;&gt;Client mode ONLY&lt;/font&gt;" style="text;html=1;strokeColor=none;fillColor=none;align=center;verticalAlign=middle;whiteSpace=wrap;rounded=0;" vertex="1" parent="1">
          <mxGeometry x="50" y="165" width="70" height="45" as="geometry" />
        </mxCell>
        <mxCell id="j04tyDxhk86PTV6EVtOH-19" value="40 Pin Connector" style="text;html=1;strokeColor=none;fillColor=none;align=center;verticalAlign=middle;whiteSpace=wrap;rounded=0;fontSize=9;" vertex="1" parent="1">
          <mxGeometry x="812.5" y="250" width="60" height="30" as="geometry" />
        </mxCell>
        <mxCell id="j04tyDxhk86PTV6EVtOH-30" value="" style="endArrow=classic;html=1;rounded=0;fontSize=14;exitX=0.233;exitY=1.01;exitDx=0;exitDy=0;exitPerimeter=0;strokeColor=#FF0000;" edge="1" parent="1" source="j04tyDxhk86PTV6EVtOH-3">
          <mxGeometry width="50" height="50" relative="1" as="geometry">
            <mxPoint x="720" y="430" as="sourcePoint" />
            <mxPoint x="390" y="360" as="targetPoint" />
          </mxGeometry>
        </mxCell>
        <mxCell id="j04tyDxhk86PTV6EVtOH-31" value="3.3 V" style="edgeLabel;html=1;align=center;verticalAlign=middle;resizable=0;points=[];fontSize=14;" vertex="1" connectable="0" parent="j04tyDxhk86PTV6EVtOH-30">
          <mxGeometry x="0.0951" y="1" relative="1" as="geometry">
            <mxPoint as="offset" />
          </mxGeometry>
        </mxCell>
        <mxCell id="j04tyDxhk86PTV6EVtOH-34" value="Additional connections:&lt;br&gt;&lt;span style=&quot;text-indent: 0.5in&quot;&gt;- I2C ?&lt;/span&gt;&lt;span style=&quot;text-indent: 0.5in&quot;&gt;&lt;br&gt;&lt;/span&gt;- SPI ?&lt;br&gt;&lt;span style=&quot;text-indent: 0.5in&quot;&gt;&amp;nbsp; &amp;nbsp; &amp;nbsp;- UART ?&lt;br&gt;&lt;/span&gt;&lt;span style=&quot;text-indent: 0.5in&quot;&gt;&amp;nbsp; &amp;nbsp; &amp;nbsp; &amp;nbsp; - nRPIBoot&lt;/span&gt;&lt;span style=&quot;text-indent: 0.5in&quot;&gt;&lt;br&gt;&lt;/span&gt;" style="text;html=1;strokeColor=none;fillColor=none;align=center;verticalAlign=middle;whiteSpace=wrap;rounded=0;fontSize=14;" vertex="1" parent="1">
          <mxGeometry x="500" y="650" width="259" height="150" as="geometry" />
        </mxCell>
        <mxCell id="j04tyDxhk86PTV6EVtOH-37" value="" style="rounded=0;orthogonalLoop=1;jettySize=auto;html=1;fontSize=9;edgeStyle=orthogonalEdgeStyle;" edge="1" parent="1" source="j04tyDxhk86PTV6EVtOH-36" target="j04tyDxhk86PTV6EVtOH-2">
          <mxGeometry relative="1" as="geometry" />
        </mxCell>
        <mxCell id="j04tyDxhk86PTV6EVtOH-39" value="" style="edgeStyle=orthogonalEdgeStyle;rounded=0;orthogonalLoop=1;jettySize=auto;html=1;fontSize=9;entryX=0.918;entryY=0.94;entryDx=0;entryDy=0;entryPerimeter=0;" edge="1" parent="1" source="j04tyDxhk86PTV6EVtOH-36" target="j04tyDxhk86PTV6EVtOH-3">
          <mxGeometry relative="1" as="geometry">
            <mxPoint x="630" y="565" as="targetPoint" />
          </mxGeometry>
        </mxCell>
        <mxCell id="j04tyDxhk86PTV6EVtOH-36" value="&lt;font size=&quot;1&quot;&gt;&lt;b&gt;GND&lt;br&gt;&lt;/b&gt;&lt;br&gt;&lt;/font&gt;" style="triangle;whiteSpace=wrap;html=1;fontSize=14;direction=south;" vertex="1" parent="1">
          <mxGeometry x="460" y="550" width="60" height="30" as="geometry" />
        </mxCell>
      </root>
    </mxGraphModel>
  </diagram>
</mxfile>
